<svg width="26" height="26" viewBox="0 0 26 26" fill="none" xmlns="http://www.w3.org/2000/svg">
<path d="M5.41666 19.5H3.24999C2.67536 19.5 2.12426 19.2717 1.71793 18.8654C1.3116 18.4591 1.08333 17.908 1.08333 17.3333V8.66667C1.08333 8.09203 1.3116 7.54093 1.71793 7.1346C2.12426 6.72827 2.67536 6.5 3.24999 6.5H6.70583M16.25 6.5H18.4167C18.9913 6.5 19.5424 6.72827 19.9487 7.1346C20.3551 7.54093 20.5833 8.09203 20.5833 8.66667V17.3333C20.5833 17.908 20.3551 18.4591 19.9487 18.8654C19.5424 19.2717 18.9913 19.5 18.4167 19.5H14.9608" stroke="#9897AD" stroke-width="1.5" stroke-linecap="round" stroke-linejoin="round"/>
<path d="M24.9167 14.0833V11.9167" stroke="#9897AD" stroke-width="1.5" stroke-linecap="round" stroke-linejoin="round"/>
<path d="M11.9167 6.5L7.58333 13H14.0833L9.75 19.5" stroke="#9897AD" stroke-width="1.5" stroke-linecap="round" stroke-linejoin="round"/>
</svg>
