<svg width="20" height="20" viewBox="0 0 20 20" fill="none" xmlns="http://www.w3.org/2000/svg">
<circle cx="10" cy="10" r="10" fill="white"/>
<path fill-rule="evenodd" clip-rule="evenodd" d="M7.28033 6.21967C6.98744 5.92678 6.51256 5.92678 6.21967 6.21967C5.92678 6.51256 5.92678 6.98744 6.21967 7.28033L9.0186 10.0793L6.21967 12.8782C5.92678 13.1711 5.92678 13.6459 6.21967 13.9388C6.51256 14.2317 6.98744 14.2317 7.28033 13.9388L10.0793 11.1399L12.6792 13.7399C12.9721 14.0328 13.447 14.0328 13.7399 13.7399C14.0328 13.447 14.0328 12.9721 13.7399 12.6792L11.1399 10.0793L13.7399 7.4793C14.0328 7.18641 14.0328 6.71153 13.7399 6.41864C13.447 6.12575 12.9721 6.12575 12.6792 6.41864L10.0793 9.0186L7.28033 6.21967Z" fill="#FFA500"/>
</svg>
