<svg width="60" height="60" viewBox="0 0 60 60" fill="none" xmlns="http://www.w3.org/2000/svg">
<path fill-rule="evenodd" clip-rule="evenodd" d="M30 32C29.448 32 29 32.448 29 33C29 33.552 29.448 34 30 34C30.552 34 31 33.552 31 33C31 32.448 30.552 32 30 32ZM30 36C28.346 36 27 34.654 27 33C27 31.346 28.346 30 30 30C31.654 30 33 31.346 33 33C33 34.654 31.654 36 30 36ZM28 24.111C28 22.947 28.897 22 30 22C31.103 22 32 22.947 32 24.111V26H28V24.111ZM35 26H34V24.111C34 21.845 32.206 20 30 20C27.794 20 26 21.845 26 24.111V26H25C23.346 26 22 27.346 22 29V37C22 38.654 23.346 40 25 40H35C36.654 40 38 38.654 38 37V29C38 27.346 36.654 26 35 26Z" fill="white"/>
<path d="M58.5 30C58.5 45.7401 45.7401 58.5 30 58.5C14.2599 58.5 1.5 45.7401 1.5 30C1.5 14.2599 14.2599 1.5 30 1.5C45.7401 1.5 58.5 14.2599 58.5 30Z" stroke="#E49401" stroke-width="3"/>
</svg>
