<svg width="63" height="31" viewBox="0 0 63 31" fill="none" xmlns="http://www.w3.org/2000/svg">
<circle cx="25.5" cy="15.5" r="15.5" fill="white"/>
<path d="M46.5722 25.1443C42.4617 25.0943 38.5316 24.05 35.6466 22.2412C32.7615 20.4323 31.1579 18.0071 31.1884 15.4989C31.2189 12.9908 32.881 10.6053 35.8092 8.86707C38.7373 7.1289 42.6916 6.18047 46.8022 6.23045L46.6872 15.6874L46.5722 25.1443Z" fill="#FFA500"/>
<path d="M23.5 31C17.2674 31 11.2901 29.367 6.88299 26.4602C2.47589 23.5533 0 19.6109 0 15.5C0 11.3891 2.47588 7.44666 6.88299 4.53985C11.2901 1.63303 17.2674 6.20722e-07 23.5 0L23.5 15.5L23.5 31Z" fill="#FFA500"/>
</svg>
