<svg width="56" height="8" viewBox="0 0 56 8" fill="none" xmlns="http://www.w3.org/2000/svg">
<path fill-rule="evenodd" clip-rule="evenodd" d="M20 0C17.792 0 16 1.792 16 4C16 6.208 17.792 8 20 8C22.208 8 24 6.208 24 4C24 1.792 22.208 0 20 0Z" fill="#E5E5E5"/>
<path fill-rule="evenodd" clip-rule="evenodd" d="M36 0C33.792 0 32 1.792 32 4C32 6.208 33.792 8 36 8C38.208 8 40 6.208 40 4C40 1.792 38.208 0 36 0Z" fill="#E5E5E5"/>
<path fill-rule="evenodd" clip-rule="evenodd" d="M52 0C49.792 0 48 1.792 48 4C48 6.208 49.792 8 52 8C54.208 8 56 6.208 56 4C56 1.792 54.208 0 52 0Z" fill="#FFA500"/>
<path fill-rule="evenodd" clip-rule="evenodd" d="M4 0C1.792 0 0 1.792 0 4C0 6.208 1.792 8 4 8C6.208 8 8 6.208 8 4C8 1.792 6.208 0 4 0Z" fill="#E5E5E5"/>
</svg>
