<svg width="542" height="667" viewBox="0 0 542 667" fill="none" xmlns="http://www.w3.org/2000/svg">
<path opacity="0.28" d="M52.725 505.973L385.009 656.389L412.506 645.925L96.0167 499.862L52.725 505.973Z" fill="black"/>
<path d="M447.369 90.0896L377.92 81.7102L379.426 66.5133L449.077 75.6125L447.369 90.0896Z" fill="#F5F5F5"/>
<path d="M391.613 88.2617L333.579 85.4834L336.783 59.1392L393.082 65.1268C394.531 68.8469 395.202 72.8248 395.052 76.8144C394.951 80.8692 393.763 84.8225 391.613 88.2617Z" fill="#F5F5F5"/>
<path d="M341.697 72.8896C341.157 80.1523 337.751 85.8411 334.36 85.5569C330.969 85.2728 328.237 79.2787 328.794 71.9128C329.351 64.547 332.74 58.9612 336.139 59.1939C339.539 59.4265 342.238 65.6268 341.697 72.8896Z" fill="#DBDBDB"/>
<path d="M446.46 91.4209L504.476 94.5707L506.904 68.6775L448.552 69.8132C446.731 73.3663 444.463 75.6988 444.206 79.6829C443.893 83.7268 444.672 87.7805 446.46 91.4209Z" fill="#F5F5F5"/>
<path d="M512.556 82.4013C512.016 89.664 508.61 95.3528 505.219 95.0686C501.828 94.7844 499.096 88.7904 499.653 81.4245C500.21 74.0587 503.599 68.4729 506.998 68.7056C510.398 68.9382 513.096 75.1385 512.556 82.4013Z" fill="#DBDBDB"/>
<path d="M383.482 78.3791L386.372 90.5858C386.515 91.2206 386.518 91.8789 386.382 92.5152C386.246 93.1515 385.972 93.7506 385.581 94.2708C385.19 94.7911 384.691 95.22 384.118 95.5281C383.544 95.8361 382.911 96.0159 382.261 96.0548C370.902 96.6497 344.546 98.097 334.317 98.2402C330.042 96.2267 325.706 97.5346 325.348 101.707C324.991 105.88 329.451 109.033 336.408 104.924C338.864 103.47 374.933 103.436 391.626 103.545C392.613 103.549 393.588 103.325 394.475 102.891C395.362 102.456 396.137 101.824 396.739 101.041C397.342 100.258 397.755 99.3475 397.948 98.379C398.141 97.4105 398.108 96.4107 397.852 95.457L393.293 78.8558L383.482 78.3791Z" fill="#F5F5F5"/>
<path d="M428.704 81.2526C429.013 81.3026 444.136 81.6337 445.747 84.7498C447.358 87.8659 446.966 95.5228 448.428 96.2882C449.891 97.0535 478.498 103.268 480.842 105.445C482.207 105.05 483.67 105.184 484.939 105.82C486.209 106.457 487.191 107.549 487.69 108.879C490.116 113.819 482.963 116.522 481.137 115.064C473.903 110.637 465.928 107.555 457.597 105.968C452.555 106.063 447.515 105.726 442.531 104.958C441.456 104.414 422.701 82.0793 422.701 82.0793L428.704 81.2526Z" fill="#F5F5F5"/>
<path d="M393.089 392.982L417.27 394.197L415.714 415.256L392.883 414.524L393.089 392.982Z" fill="#F5F5F5"/>
<path d="M405.391 505.226C405.391 505.226 414.357 506.677 414.137 521.765C414.313 527.65 413.962 533.539 413.089 539.362L425.615 542.34C427.177 533.255 427.784 524.031 427.423 514.819C426.041 505.711 419.527 493.024 411.131 488.705C411.131 488.705 401.848 496.404 405.391 505.226Z" fill="#F5F5F5"/>
<path d="M393.177 465.337L392.269 505.273L409.158 507.106L414.686 466.067L393.177 465.337Z" fill="#E7E7E7"/>
<path d="M393.318 415.757L393.206 466.133L415.401 468.507C415.401 468.507 417.745 459.579 414.27 456.215L416.302 416.197L393.318 415.757Z" fill="#F5F5F5"/>
<path d="M418.427 413.527L417.974 419.27L389.427 418.565L389.467 412.438L418.427 413.527Z" fill="#E7E7E7"/>
<path d="M414.383 391.458L395.345 390.81L409.879 82.3848L427.127 83.9589L414.383 391.458Z" fill="#F5F5F5"/>
<path d="M456.482 588.845C456.607 627.625 434.993 658.923 402.186 659.062C369.378 659.202 343.773 631.158 340.779 591.808C337.484 546.803 364.04 518.949 396.848 518.81C429.655 518.67 456.357 550.064 456.482 588.845Z" fill="#E7E7E7"/>
<path d="M428.069 590.909C428.182 616.362 413.974 636.855 392.494 636.923C371.014 636.991 354.201 618.672 352.293 592.875C350.04 563.322 367.529 545.105 389.009 545.037C410.489 544.969 427.999 565.516 428.069 590.909Z" fill="#231F20"/>
<path d="M420.688 590.775C420.754 611.937 409.257 628.743 391.33 628.752C373.403 628.76 359.712 613.696 358.082 592.386C356.267 567.98 370.698 552.97 388.428 552.877C406.157 552.784 420.647 569.775 420.688 590.775Z" fill="#414042"/>
<path d="M412.595 590.788C412.661 606.398 403.968 618.951 390.795 618.988C377.622 619.026 367.33 607.79 366.131 591.996C364.774 573.904 375.465 562.731 388.647 562.642C401.828 562.553 412.573 575.238 412.595 590.788Z" fill="#231F20"/>
<path d="M327.133 533.972C329.087 533.336 352.718 529.121 357.2 525.933C355.471 523.929 353.425 522.223 351.143 520.882C342.431 515.242 336.171 510.792 204.179 454.276C188.107 447.393 173.285 443.567 155.392 409.368C137.499 375.169 129.081 362.809 89.9705 362.034C75.0776 361.645 60.1759 362.327 45.3807 364.075C58.4846 365.771 83.1768 371.67 91.8203 391.787C103.805 419.689 106.355 452.305 178.985 479.918C251.616 507.531 324.1 535.068 327.133 533.972Z" fill="#E49401"/>
<path d="M388.985 387.296L388.656 402.736L419.985 403.891L420.924 388.602L388.985 387.296Z" fill="#E7E7E7"/>
<path d="M396.29 423.535C396.29 423.535 351.802 441.614 312.745 515.038C320.486 520.418 329.45 523.776 338.82 524.808C338.82 524.808 359.24 487.818 396.148 471.156L396.29 423.535Z" fill="#E7E7E7"/>
<path d="M136.774 471.503L133.115 470.911C126.854 469.899 120.957 474.153 119.944 480.414L117.202 497.368C116.189 503.629 120.443 509.526 126.705 510.538L130.363 511.13C136.624 512.143 142.521 507.888 143.534 501.627L146.276 484.674C147.289 478.413 143.035 472.516 136.774 471.503Z" fill="#A39E98"/>
<path d="M113.294 476.747C111.998 484.758 108.356 492.205 102.828 498.145C97.2998 504.086 90.1345 508.254 82.2376 510.122C74.3407 511.991 66.0671 511.476 58.4631 508.642C50.8591 505.808 44.2662 500.783 39.5181 494.202C34.77 487.621 32.0798 479.78 31.788 471.671C31.4962 463.561 33.6158 455.547 37.8786 448.642C42.1414 441.737 48.356 436.251 55.7366 432.878C63.1173 429.505 71.3324 428.396 79.3432 429.692C90.0852 431.43 99.697 437.364 106.064 446.188C112.431 455.013 115.032 466.005 113.294 476.747Z" fill="#E7E7E7"/>
<path d="M106.557 476.336C105.477 483.016 102.44 489.225 97.8299 494.179C93.2203 499.133 87.2453 502.608 80.6604 504.166C74.0754 505.724 67.1763 505.294 60.8356 502.931C54.4948 500.568 48.9972 496.378 45.0379 490.891C41.0786 485.403 38.8354 478.865 38.5921 472.103C38.3487 465.34 40.1162 458.658 43.6708 452.9C47.2254 447.142 52.4076 442.567 58.562 439.755C64.7165 436.942 71.5669 436.017 78.2468 437.098C87.2042 438.547 95.2192 443.495 100.528 450.854C105.838 458.212 108.006 467.378 106.557 476.336Z" fill="#414042"/>
<path d="M143.865 461.014L130.546 452.144C131.339 439.102 127.173 426.242 118.882 416.143C110.591 406.045 98.7883 399.453 85.8414 397.692C71.9013 395.436 57.6363 398.811 46.1846 407.074C34.7329 415.337 27.0325 427.81 24.7775 441.75C23.4889 448.421 23.5705 455.285 25.0173 461.924C26.464 468.562 29.2458 474.838 33.1934 480.368C37.1409 485.898 42.1718 490.568 47.9803 494.093C53.7888 497.618 60.2536 499.926 66.9816 500.875C76.9864 502.507 87.25 501.19 96.5192 497.086C107.466 498.064 129.973 501.123 135.545 496.102C143.27 489.209 143.865 461.014 143.865 461.014Z" fill="#E7E7E7"/>
<path opacity="0.28" d="M40.7452 468.236C40.628 468.96 40.2278 469.608 39.6328 470.038C39.0377 470.467 38.2966 470.642 37.5723 470.525C36.8479 470.408 36.1997 470.008 35.7704 469.413C35.341 468.818 35.1658 468.076 35.283 467.352C35.4001 466.628 35.8001 465.98 36.3952 465.55C36.9902 465.121 37.7315 464.946 38.4559 465.063C39.1802 465.18 39.8283 465.58 40.2576 466.175C40.6869 466.77 40.8624 467.511 40.7452 468.236Z" fill="black"/>
<path opacity="0.28" d="M43.9656 479.385C45.4739 479.629 46.8945 478.604 47.1385 477.096C47.3825 475.587 46.3575 474.167 44.8492 473.923C43.3408 473.679 41.9203 474.704 41.6763 476.212C41.4323 477.72 42.4572 479.141 43.9656 479.385Z" fill="black"/>
<path opacity="0.28" d="M56.1948 484.854C56.1074 485.394 55.8618 485.896 55.489 486.297C55.1162 486.697 54.6331 486.978 54.1006 487.104C53.5681 487.23 53.0103 487.196 52.4975 487.005C51.9848 486.813 51.5403 486.475 51.2201 486.031C50.8999 485.587 50.7186 485.058 50.6989 484.512C50.6792 483.965 50.8221 483.424 51.1095 482.959C51.3969 482.493 51.8159 482.123 52.3136 481.896C52.8113 481.668 53.3653 481.594 53.9055 481.681C54.6298 481.798 55.2779 482.198 55.7072 482.793C56.1365 483.388 56.3119 484.13 56.1948 484.854Z" fill="black"/>
<path d="M307.267 528.642L304.908 543.225L272.197 554.537L140.569 505.905L145.479 475.554L307.267 528.642Z" fill="#E7E7E7"/>
<path opacity="0.28" d="M302.945 543.913L292.613 547.635L296.731 522.179L306.213 523.713L302.945 543.913Z" fill="black"/>
<path opacity="0.28" d="M263.066 551.156L272.196 554.537L279.255 552.083L284.265 521.113L268.751 516.013L263.066 551.156Z" fill="black"/>
<path opacity="0.28" d="M143.864 461.016L130.546 452.146C131.25 443.631 129.696 435.081 126.042 427.357C110.737 433.712 92.3466 446.39 100.15 459.603C106.677 471.234 134.961 467.349 124.905 494.859C123.209 497.175 118.785 498.046 113.716 498.654C123.081 499.27 132.461 499.148 135.75 496.137C143.269 489.21 143.864 461.016 143.864 461.016Z" fill="black"/>
<path d="M329.071 542.905L357.419 536.015L358.452 529.626C358.452 529.626 359.872 526.735 351.108 521.087C342.345 515.439 336.136 510.998 204.145 454.482C188.073 447.598 173.251 443.773 155.358 409.574C137.465 375.375 129.047 363.014 89.9363 362.24C73.8706 361.792 57.7961 362.73 41.8916 365.044C52.3704 384.929 47.6704 407.118 35.8614 452.006C39.4973 462.218 51.7723 466.425 61.7472 465.236C74.3245 469.861 90.0147 472.241 100.215 462.469C109.508 467.78 313.738 545.183 329.071 542.905Z" fill="#FFA500"/>
<path d="M357.593 534.934L358.427 529.781C358.427 529.781 326.169 538.946 325.833 538.733C229.394 506.951 165.293 482.833 67.7759 441.041C63.473 456.526 39.187 438.637 38.8589 440.012C37.8647 443.87 36.7855 447.926 35.6647 452.239C39.3006 462.451 51.5755 466.658 61.5505 465.469C74.1277 470.095 89.8178 472.474 100.018 462.702C109.483 467.935 313.236 544.362 324.796 546.126L357.393 536.17L357.568 535.088L357.593 534.934Z" fill="#E49401"/>
<path d="M396.148 451.539L396.331 423.279C396.331 423.279 351.844 441.358 312.786 514.781C316.347 517.175 320.12 519.237 324.058 520.941C342.671 492.77 367.291 469.069 396.148 451.539Z" fill="#F5F5F5"/>
<path d="M323.852 520.908C328.52 523.021 333.54 524.246 338.656 524.519C338.656 524.519 359.076 487.529 395.984 470.867L396.149 451.54C367.22 469.036 342.529 492.727 323.852 520.908Z" fill="#E7E7E7"/>
<path d="M402.131 503.8C402.131 503.8 388.517 519.312 388.572 530.743C388.899 563.37 390.324 583.324 390.232 583.891C385.836 584.801 381.388 585.441 376.914 585.808C376.914 585.808 373.702 543.884 374.282 528.855C374.702 517.765 379.153 490.248 396.811 487.657C398.398 488.151 399.845 489.017 401.031 490.182C402.216 491.348 403.106 492.78 403.627 494.359C404.147 495.938 404.283 497.619 404.023 499.261C403.763 500.903 403.114 502.459 402.131 503.8Z" fill="#F5F5F5"/>
<path d="M389.988 581.155C391.683 583.364 392.464 586.141 392.17 588.911C391.795 591.437 390.459 593.721 388.442 595.288C386.896 595.038 384.321 594.938 382.088 594.683C376.869 594.261 374.376 591.69 374.588 587.441C374.799 583.192 377.048 579.749 381.066 580.082C384.057 580.278 387.035 580.636 389.988 581.155Z" fill="#414042"/>
<path d="M386.542 587.419C386.327 588.635 385.766 589.763 384.927 590.668C384.087 591.573 383.004 592.217 381.808 592.522C380.611 592.827 379.352 592.781 378.181 592.389C377.011 591.997 375.978 591.276 375.206 590.312C374.435 589.348 373.958 588.182 373.832 586.954C373.707 585.725 373.938 584.487 374.499 583.386C375.059 582.286 375.925 581.371 376.992 580.75C378.059 580.13 379.283 579.83 380.516 579.887C382.306 580.104 383.94 581.014 385.067 582.422C386.194 583.831 386.723 585.624 386.542 587.419Z" fill="#A7A9AC"/>
</svg>
