<svg width="40" height="40" viewBox="0 0 40 40" fill="none" xmlns="http://www.w3.org/2000/svg">
<rect width="40" height="40" rx="10" fill="#FFA500"/>
<path fill-rule="evenodd" clip-rule="evenodd" d="M21.6261 14.4775L25.6494 19.4775C25.8986 19.7867 25.8944 20.2283 25.6402 20.5333L21.4736 25.5333C21.3086 25.7308 21.0719 25.8333 20.8327 25.8333C20.6452 25.8333 20.4561 25.77 20.3002 25.64C19.9461 25.3458 19.8986 24.82 20.1936 24.4667L23.9236 19.9908L20.3269 15.5225C20.0386 15.1642 20.0952 14.6392 20.4544 14.3508C20.8127 14.0617 21.3369 14.1192 21.6261 14.4775ZM14.621 14.3509C14.9793 14.0626 15.5035 14.1193 15.7927 14.4776L19.816 19.4776C20.0643 19.7868 20.061 20.2284 19.8068 20.5334L15.6402 25.5334C15.4752 25.7309 15.2385 25.8334 14.9993 25.8334C14.8118 25.8334 14.6227 25.7701 14.4668 25.6401C14.1127 25.3459 14.0652 24.8201 14.3602 24.4668L18.0893 19.9909L14.4935 15.5226C14.2052 15.1643 14.2627 14.6393 14.621 14.3509Z" fill="white"/>
</svg>
